<?xml version="1.0" standalone="no"?>
<!DOCTYPE svg PUBLIC "-//W3C//DTD SVG 20010904//EN"
 "http://www.w3.org/TR/2001/REC-SVG-20010904/DTD/svg10.dtd">
<svg version="1.0" xmlns="http://www.w3.org/2000/svg"
 width="275.000000pt" height="91.000000pt" viewBox="0 0 275.000000 91.000000"
 preserveAspectRatio="xMidYMid meet">

<g transform="translate(0.000000,91.000000) scale(0.100000,-0.100000)"
fill="#000000" stroke="none">
<path d="M116 804 c-64 -58 -114 -109 -111 -114 12 -20 225 -210 235 -210 8 0
9 20 4 61 -5 46 -4 60 5 55 7 -5 11 0 11 13 0 22 -8 25 -34 15 -12 -5 -14 -16
-9 -52 l6 -47 -91 80 c-49 44 -91 83 -91 86 -1 3 40 44 90 89 l91 84 -3 -50
-4 -49 264 -3 263 -2 -27 -36 c-17 -23 -24 -39 -18 -45 6 -6 25 10 51 44 23
30 42 57 42 60 0 4 -124 7 -276 7 l-276 0 7 60 c4 36 3 60 -3 60 -5 0 -61 -48
-126 -106z"/>
<path d="M2402 513 c3 -239 5 -278 18 -278 11 0 16 14 18 56 3 52 6 59 55 107
l52 51 88 -110 c80 -100 105 -120 114 -93 2 5 -33 54 -78 109 -44 55 -83 106
-86 113 -3 8 29 48 76 96 44 46 81 89 81 95 0 33 -48 -4 -165 -128 l-130 -137
-3 198 c-2 190 -3 198 -22 198 -20 0 -20 -6 -18 -277z"/>
<path d="M1530 664 c-102 -44 -151 -165 -116 -286 44 -151 235 -203 353 -95
17 15 20 24 12 33 -8 10 -20 6 -53 -18 -58 -40 -118 -47 -179 -20 -51 23 -94
78 -99 127 l-3 30 178 3 177 2 0 38 c0 42 -37 128 -66 154 -52 46 -140 60
-204 32z m168 -59 c34 -30 62 -86 62 -124 0 -8 -47 -11 -160 -11 l-160 0 6 28
c23 93 78 142 161 142 46 0 58 -4 91 -35z"/>
<path d="M2025 662 c-113 -53 -158 -196 -101 -319 41 -87 131 -131 230 -112
76 14 150 73 118 93 -4 2 -27 -8 -51 -24 -75 -51 -154 -52 -211 -3 -34 28 -70
91 -70 123 0 19 5 20 181 20 l182 0 -7 47 c-15 113 -82 183 -179 190 -36 3
-64 -2 -92 -15z m175 -57 c24 -23 60 -103 60 -132 0 -2 -72 -3 -160 -3 -182 0
-179 -2 -137 80 33 67 78 93 150 88 46 -4 63 -10 87 -33z"/>
<path d="M980 655 c0 -13 22 -15 145 -15 90 0 145 -4 145 -10 0 -5 -67 -91
-150 -191 -82 -100 -150 -185 -150 -190 0 -16 44 -20 205 -17 142 3 160 5 163
20 3 16 -11 18 -152 20 l-155 3 154 185 c85 102 153 190 151 195 -1 6 -73 11
-179 13 -153 2 -177 0 -177 -13z"/>
<path d="M579 425 c-3 -2 -3 -27 1 -55 5 -37 3 -50 -6 -50 -7 0 -12 -9 -11
-20 1 -21 14 -25 36 -11 10 7 12 20 7 51 l-7 42 24 -19 c13 -10 55 -47 95 -82
l71 -65 -57 -51 c-31 -28 -73 -66 -94 -84 l-36 -32 1 48 2 48 -263 3 -263 2
25 31 c25 29 34 59 19 59 -11 -1 -83 -96 -83 -109 0 -8 82 -11 271 -11 l270 0
-2 -55 c-1 -30 0 -58 4 -61 7 -7 230 192 235 210 1 6 -47 56 -109 111 -115
103 -122 109 -130 100z"/>
</g>
</svg>
